<?xml version="1.0" standalone="no"?>
<!DOCTYPE svg PUBLIC "-//W3C//DTD SVG 20010904//EN"
 "http://www.w3.org/TR/2001/REC-SVG-20010904/DTD/svg10.dtd">
<svg version="1.0" xmlns="http://www.w3.org/2000/svg"
 width="223.000000pt" height="226.000000pt" viewBox="0 0 223.000000 226.000000"
 preserveAspectRatio="xMidYMid meet">

<g transform="translate(0.000000,226.000000) scale(0.100000,-0.100000)"
fill="#ffffff" stroke="none">
<path d="M962 1790 c-96 -25 -210 -86 -301 -160 -41 -33 -88 -69 -106 -80
l-31 -19 -49 24 c-65 33 -117 32 -251 -6 -197 -55 -196 -52 -107 -303 37 -104
75 -198 85 -208 23 -23 70 -23 140 0 l56 19 6 -75 c16 -173 93 -332 225 -463
72 -71 104 -94 182 -133 113 -55 184 -75 304 -83 430 -29 795 327 795 773 0
48 4 73 10 69 21 -13 138 -6 178 11 44 17 82 55 82 82 0 9 10 26 22 39 30 32
37 135 13 187 -56 117 -207 180 -341 141 -41 -12 -60 -13 -62 -6 -7 22 -62 41
-116 41 -47 0 -63 5 -103 34 -72 51 -162 93 -249 116 -104 27 -278 27 -382 0z
m250 -204 c24 -16 25 -15 36 9 11 23 17 26 55 23 l42 -3 6 -70 c4 -38 7 -117
8 -174 1 -94 -1 -108 -24 -147 -33 -57 -93 -85 -178 -86 -59 0 -117 17 -131
40 -3 5 4 23 15 41 15 25 24 31 37 25 9 -4 40 -9 67 -12 60 -4 105 23 105 65
l0 25 -31 -26 c-17 -14 -40 -26 -52 -27 -118 -5 -193 41 -218 134 -38 142 139
265 263 183z m286 17 c5 -10 10 -61 11 -113 2 -82 5 -97 23 -112 26 -23 60
-23 87 0 19 15 23 31 29 122 l7 105 52 0 c29 -1 57 -5 62 -10 8 -9 -4 -293
-14 -322 -3 -8 -21 -13 -44 -13 -35 0 -42 4 -47 25 -7 30 -9 30 -35 6 -25 -23
-77 -34 -116 -25 -39 9 -90 49 -108 84 -16 31 -33 226 -22 254 9 24 103 23
115 -1z m-594 -40 c4 -16 15 -89 25 -163 18 -124 18 -136 3 -147 -22 -18 -77
-16 -92 2 -11 13 -17 11 -48 -16 -33 -29 -39 -31 -97 -27 -128 8 -212 108
-183 216 15 55 84 117 146 132 45 10 55 9 96 -9 45 -19 46 -19 46 -1 0 24 26
39 67 40 26 0 32 -4 37 -27z m1181 -9 c58 -30 97 -84 102 -141 7 -72 -3 -78
-119 -58 -51 8 -108 18 -125 21 -24 3 -33 1 -33 -9 0 -40 90 -70 149 -49 28
10 33 8 56 -21 25 -32 25 -32 5 -49 -26 -21 -90 -32 -146 -23 -94 14 -184 108
-184 194 0 51 42 115 92 140 54 28 144 25 203 -5z m-1658 -34 c61 -37 79 -108
43 -167 -24 -41 -51 -57 -122 -78 l-57 -16 13 -42 c7 -23 16 -52 20 -65 6 -19
2 -24 -26 -36 -70 -29 -75 -28 -86 1 -44 112 -120 349 -114 355 15 15 210 67
252 67 28 1 57 -7 77 -19z m1386 -296 c3 -4 -3 -24 -14 -45 -18 -35 -23 -39
-59 -39 -39 0 -40 1 -34 28 14 62 13 62 58 62 23 0 45 -3 49 -6z m-1045 -116
c11 -29 45 -117 76 -196 31 -79 56 -150 56 -158 0 -12 -11 -14 -52 -12 -50 3
-53 5 -62 36 l-9 32 -77 0 -76 0 -15 -32 c-12 -28 -20 -33 -53 -36 -70 -6 -70
-8 8 195 40 103 76 196 79 206 5 13 18 17 56 17 l50 0 19 -52z m366 -23 c43
-29 46 -30 46 -10 0 16 27 32 50 30 8 -1 21 -3 28 -3 9 -2 12 -55 12 -232 l0
-230 -22 -5 c-13 -3 -36 -4 -53 -2 l-30 2 -3 73 -3 73 -26 -21 c-57 -45 -163
-13 -208 63 -47 81 -30 188 39 243 62 50 116 56 170 19z m276 -95 c0 -97 2
-112 20 -130 24 -24 57 -26 82 -3 15 13 18 31 18 98 0 46 3 97 6 114 6 29 9
31 54 31 59 0 60 -1 60 -177 0 -158 -7 -183 -51 -183 -24 0 -33 6 -41 28 l-11
28 -28 -28 c-51 -52 -146 -33 -190 38 -18 30 -23 55 -27 140 -2 56 -2 114 2
128 6 24 11 26 56 26 l50 0 0 -110z m388 -59 c3 -186 1 -194 -62 -189 l-41 3
-3 178 -2 178 52 -3 53 -3 3 -164z m-236 -322 c21 -11 21 -12 -13 -40 -31 -26
-32 -28 -12 -29 12 0 27 8 33 18 10 15 10 15 8 -3 -5 -30 -63 -34 -78 -5 -9
17 -8 26 5 46 17 27 27 29 57 13z m-662 -9 c0 -5 -5 -10 -11 -10 -5 0 -7 5 -4
10 3 6 8 10 11 10 2 0 4 -4 4 -10z m-26 -67 c-7 -51 -24 -83 -24 -46 0 22 -31
40 -50 28 -5 -3 -10 -3 -10 2 1 9 71 62 83 63 5 0 5 -21 1 -47z m586 37 c8 -5
11 -10 7 -10 -5 0 0 -16 12 -35 11 -19 16 -35 11 -35 -5 0 -17 14 -27 30 -9
17 -20 30 -23 30 -4 0 -7 7 -7 15 0 17 6 18 27 5z m-497 -42 c12 -7 23 -13 25
-14 1 -1 -6 -22 -17 -48 -16 -36 -25 -46 -43 -46 -27 0 -55 16 -45 26 3 4 13
1 21 -5 11 -10 19 -10 33 -1 11 7 12 10 3 7 -27 -8 -50 12 -50 43 0 17 7 33
18 39 22 14 28 13 55 -1z m470 -23 c21 -44 8 -46 -16 -3 -16 28 -19 30 -33 16
-13 -13 -14 -20 -4 -37 6 -12 9 -27 7 -34 -4 -11 -16 11 -32 62 -5 15 -4 21 3
17 6 -3 13 -2 17 4 13 21 42 9 58 -25z m-369 -34 c-4 -28 -11 -51 -15 -51 -8
0 -4 65 7 99 10 30 15 1 8 -48z m-47 -7 c-6 -26 -13 -42 -15 -35 -6 18 8 81
17 81 5 0 3 -21 -2 -46z m313 27 c11 -22 8 -25 -34 -35 -23 -6 -26 -10 -16
-16 8 -5 19 -5 26 0 12 11 26 2 18 -11 -8 -13 -48 -11 -62 3 -15 15 -15 51 0
66 18 18 56 14 68 -7z m-122 -4 c6 -5 11 -25 11 -45 l-2 -37 -6 35 c-4 22 -12
36 -23 38 -18 4 -22 -5 -18 -45 1 -13 -3 -23 -9 -23 -6 0 -11 16 -11 35 0 28
-4 35 -20 35 -16 0 -20 -7 -20 -35 0 -19 -4 -35 -10 -35 -5 0 -10 20 -10 44
l0 43 53 -1 c28 0 58 -5 65 -9z"/>
<path d="M1085 1495 c-31 -30 -32 -73 -5 -108 56 -70 185 -17 164 68 -16 63
-112 88 -159 40z"/>
<path d="M645 1445 c-51 -50 -15 -136 57 -138 63 -2 118 55 102 105 -19 60
-113 80 -159 33z"/>
<path d="M1949 1483 c-43 -18 -28 -28 59 -37 62 -7 76 0 48 23 -28 24 -71 29
-107 14z"/>
<path d="M272 1437 c-24 -7 -31 -14 -27 -26 4 -9 9 -28 12 -42 5 -26 7 -26 42
-17 20 6 42 15 49 20 19 16 14 56 -7 68 -23 12 -25 12 -69 -3z"/>
<path d="M680 972 c-8 -26 -16 -53 -18 -59 -2 -9 9 -13 37 -13 23 0 41 1 41 3
0 10 -34 103 -39 109 -4 5 -13 -13 -21 -40z"/>
<path d="M1032 992 c-34 -27 -40 -89 -12 -124 17 -22 30 -28 60 -28 49 0 79
25 87 72 5 32 1 41 -25 68 -35 35 -75 39 -110 12z"/>
<path d="M1513 585 c-9 -24 0 -25 27 -5 l25 20 -23 0 c-12 0 -25 -7 -29 -15z"/>
<path d="M842 547 c-9 -11 -10 -17 -2 -22 15 -9 23 -1 18 21 -3 15 -4 16 -16
1z"/>
<path d="M907 506 c-10 -26 4 -47 27 -44 15 2 21 10 21 28 0 29 -38 41 -48 16z"/>
<path d="M1270 485 c-10 -12 -9 -15 6 -15 11 0 25 4 32 9 11 7 10 10 -3 15
-22 8 -21 8 -35 -9z"/>
</g>
</svg>
